<svg xmlns="http://www.w3.org/2000/svg" viewBox="0 0 816.65 211.27"><defs><style>.cls-1{font-size:72px;font-family:"HGSGyoshotai",serif;letter-spacing:-0.04em;}.cls-2{font-size:132px;letter-spacing:0.05em;}.cls-3{fill:#231815;}</style></defs><g id="レイヤー_2" data-name="レイヤー 2"><g id="レイヤー_1-2" data-name="レイヤー 1"><text class="cls-1" transform="translate(221.43 71.66)">浄土真宗 本願寺派<tspan class="cls-2"><tspan x="83.25" y="121.56">光隆寺</tspan></tspan></text><path class="cls-3" d="M204,98.7a3.56,3.56,0,0,0-1.54-3.08,17.16,17.16,0,0,0,.62-1.74,5,5,0,0,0-.62-4.51c-1.23-2.05-4.4-1.44-5.63-1.33a50.72,50.72,0,0,1-6.46.51c-4.31.1-9.33-2.36-13.13-4.92s-7.79-8.72-9.33-12.1-2.76-5.74-2.76-5.74,3.58.51,4.4,1.33a29,29,0,0,1,3.59,5.23c1.64,2.77,2.87,6.36,7.28,9.43s10.56,2.87,13.74,2.46S200,82.09,200,79.32A5.6,5.6,0,0,0,197.8,75a7.55,7.55,0,0,0,1-4.72c-.31-2.77-3.8-3.69-3.8-3.69a8.42,8.42,0,0,0-.92-4.51c-1.23-2.67-4.72-1.64-6.66-.51s-3.18,1.64-9.64,2.15-10.66-.1-16.2-3.9a29.29,29.29,0,0,1-8.51-9.53h3.49a9.79,9.79,0,0,0,1.64-.1A30.3,30.3,0,0,0,165.81,58c4.92,3.48,10.56,2.77,16.61,1.43s7.28-6,7-7.79a3.91,3.91,0,0,0-2.15-2.56,15,15,0,0,0-.51-5.85c-.92-2.87-4.31-2.35-4.31-2.35a16,16,0,0,0-1.23-4.21c-1-2.36-6.05-2.87-7.69-1.23s-3.59,3.39-6.76,6.15a20.83,20.83,0,0,1-14.56,4.93c-6-.41-7.69-2.06-10.77-3.7s-6.66-4.1-6.66-4.1a25.16,25.16,0,0,0,3-1.23,7.61,7.61,0,0,0,1.74-1,29.75,29.75,0,0,0,13.33,4.92c7.38.61,11.69-3,14.56-5.43s4.92-6.87,3-9-5.23-1.64-5.23-1.64a5.58,5.58,0,0,0-2.57-5.53c-3.18-1.85-6.66,0-6.66,0a9.39,9.39,0,0,0-2.15-4.31A4.22,4.22,0,0,0,146.64,17a52.25,52.25,0,0,1-6,12.3A19.24,19.24,0,0,1,128,36.88a67.28,67.28,0,0,1-13.12.51c-3.79-.2-4.51-.82-4.51-.82a8.45,8.45,0,0,0,.92-2,14.85,14.85,0,0,0,.31-1.95s4.31.21,11.07-.2,11.38-3.38,15.58-7.79S143,11.14,139.36,8.79,131.06,7,131.06,7s-3.79-4.92-7.38-5a8.68,8.68,0,0,0-5.85,2.05s-3-3.56-7.17-3.78S103.93,2,103.91,7.61c0,5.21,1.22,7.2,2.1,10.74s2.55,7.1,1.66,11.53-1.34,6.39-3.54,8.53l-2,1.92c-.34-.34-.8-.81-1-1.06s-.66-.61-.92-.86c-2.2-2.14-2.66-4.1-3.54-8.53s.77-8,1.66-11.53,2.13-5.53,2.1-10.74C100.38,2,97.86.07,93.64.29s-7.16,3.78-7.16,3.78A8.68,8.68,0,0,0,80.63,2c-3.59.1-7.38,5-7.38,5S68.53,6.43,65,8.79s-3.08,11.48,1.12,15.89,8.82,7.38,15.59,7.79,11.07.2,11.07.2A14.85,14.85,0,0,0,93,34.62a8.45,8.45,0,0,0,.92,2s-.72.62-4.51.82a67.28,67.28,0,0,1-13.12-.51,19.24,19.24,0,0,1-12.61-7.59,52.25,52.25,0,0,1-6-12.3,4.22,4.22,0,0,0-7.08-1.54,9.39,9.39,0,0,0-2.15,4.31s-3.49-1.85-6.66,0a5.58,5.58,0,0,0-2.57,5.53s-3.28-.51-5.23,1.64.11,6.56,3,9,7.17,6,14.56,5.43a29.68,29.68,0,0,0,13.32-4.92,8,8,0,0,0,1.75,1,25.16,25.16,0,0,0,3,1.23S66,41.18,62.9,42.82s-4.82,3.29-10.77,3.7a20.81,20.81,0,0,1-14.56-4.93c-3.18-2.76-5.12-4.51-6.76-6.15s-6.67-1.13-7.69,1.23a16,16,0,0,0-1.23,4.21s-3.39-.52-4.31,2.35a15,15,0,0,0-.51,5.85,3.94,3.94,0,0,0-2.16,2.56c-.3,1.74.93,6.46,7,7.79s11.68,2,16.61-1.43a30.3,30.3,0,0,0,7.58-7.79,9.64,9.64,0,0,0,1.64.1h3.49a29.29,29.29,0,0,1-8.51,9.53c-5.54,3.8-9.74,4.41-16.2,3.9s-7.69-1-9.64-2.15-5.43-2.16-6.66.51a8.42,8.42,0,0,0-.92,4.51s-3.49.92-3.8,3.69a7.48,7.48,0,0,0,1,4.72,5.59,5.59,0,0,0-2.16,4.3c0,2.77,2.67,4.51,5.85,4.92s9.33.62,13.74-2.46,5.64-6.66,7.28-9.43a29.71,29.71,0,0,1,3.58-5.23c.82-.82,4.41-1.33,4.41-1.33S38,68.15,36.44,71.53s-5.53,9.54-9.33,12.1-8.81,5-13.12,4.92A50.72,50.72,0,0,1,7.53,88c-1.23-.11-4.41-.72-5.64,1.33a5.05,5.05,0,0,0-.61,4.51c.31,1,.61,1.74.61,1.74a3.32,3.32,0,0,0,.72,5.95,4.91,4.91,0,0,0-.82,4.1c.62,2.36,2.77,3.59,5.64,3.28s9.33-2,13.33-6.15S26,93,25.88,90.91s3.8-3.9,3.8-3.9a40.86,40.86,0,0,1-1.85,9c-1.64,5.23-5.23,11-11.17,13.85S7.74,112.54,6,112.44a3.2,3.2,0,0,0-3.29,3.07c-.1,1.75,1.75,3.28,1.75,3.28A4,4,0,0,0,2.3,123.2c.62,3.18,3,3,3,3s-.82,2.36,2,5.23,7.89.52,10.35-1.23,7.48-5.53,7.59-11.07a35.44,35.44,0,0,0-.93-8.81,4.3,4.3,0,0,1,.52-3.08c.61-.92,2.56-3.08,2.56-3.08s.62,5.44.82,10.26.1,11.17-3.59,15-6.66,7-10.56,7.69-4.51,2.36-4.61,3.39a2.14,2.14,0,0,0,.92,2.35,15.41,15.41,0,0,0,1.54.93s-2.36,2.56-.92,4.71,4.61,2.05,4.61,2.05-1,3.69.51,5.13,4.62.72,7.59-1.95,5.84-6.05,5.74-12.61-.41-10.76.21-13,1.43-2,1.43-2,2.36,4.62,2.36,8.31,1.23,9.94-2,14.45a45.6,45.6,0,0,1-8.1,8.92c-2.36,1.95-2.56,4-1.74,5a2.11,2.11,0,0,0,1.74.92,4.23,4.23,0,0,0,1.33,3.69,4.6,4.6,0,0,0,3.8,1.23s0,3.49,1.64,4.1,4.2.72,6.15-3.08a24.57,24.57,0,0,0,3-12.91c-.31-4.82-2.56-6.87-2.67-8.72a29.12,29.12,0,0,1,.31-4.61,13.07,13.07,0,0,1,4.62,5.95c1.74,4.2,2.76,9.12,1,13.94a24.82,24.82,0,0,1-5.23,9.12,4.11,4.11,0,0,0-.51,5.13c.82,1.13,3.38,1.13,3.38,1.13a4.62,4.62,0,0,0,1.75,4.51c2.35,1.74,3.79.31,3.79.31s.2,3.89,3.48,3.58,4.82-2.35,4.62-8-3.69-9.74-5.23-11.49a8.7,8.7,0,0,1-2.15-5.12v-3.9s1.33,1.13,4.1,4,6,5.54,7.28,8.82a13,13,0,0,1,.1,8.61c-.72,2.36-4.1,6.25-3.18,9.84s2.67,4.92,4.72,5.44a10.31,10.31,0,0,0,4.41-.11s.3,2.67,1.53,3.18,2.16.41,2.67-.1a11.27,11.27,0,0,0,1-1.23s.31.51,3,.61,3.69-1.33,2.66-5.22-5.53-8.82-7.89-10.26-4.72-2.77-4.92-4.3a31.81,31.81,0,0,1,0-4.62s3.28,3,6.87,6a43.28,43.28,0,0,0,8.1,5,22.77,22.77,0,0,0,3.07,11.49c3.39,5.84,7.49,7,9.84,7.07s3.18-.82,3.8-1.85a16.11,16.11,0,0,0,1.13-2.56s2.87.62,4.3-.31,2.77-3,2.26-4.61a5.53,5.53,0,0,0-2.36-2.66,10.26,10.26,0,0,0,.41-5.54c-.72-2.56-2.36-4.72-6.87-5a36.05,36.05,0,0,0-9.53.62c-1.54.31-4.93.51-4.93.51a33.23,33.23,0,0,1-7.07-4.3,65.86,65.86,0,0,1-6.87-6.56,16.46,16.46,0,0,1,4.31-.21c1.12.31,1.43,1.13,3.89,2.87a21.16,21.16,0,0,0,9.13,3.38,17.42,17.42,0,0,0,5.74.11c1.13-.11,2.36-1.54,1.64-2.67a7.7,7.7,0,0,0-2.56-2,9.75,9.75,0,0,0-2.36-2.77A16.58,16.58,0,0,0,80,167.49a2.87,2.87,0,0,0-2.77-2.77,9.22,9.22,0,0,0-5.64,1.34,11.17,11.17,0,0,1-5.54,1.23c-3,0-5.43.3-7.17-1.23s-4.41-4.41-6.46-6.05-4-5.74-4-5.74a5.25,5.25,0,0,1,4.32.92,51.93,51.93,0,0,0,8.53,6.54c4,2.32,6.54,2.1,8.64,1.77s3.55-1.66,3.55-3.32-2.55-2.33-2.55-2.33a3,3,0,0,0-.44-3.1,7.23,7.23,0,0,0-3.66-1.89s-.89-4.09-3.1-3.65-6.09,1.77-8,1.88-5.32,1-7.86-.77A27.2,27.2,0,0,1,41,143.45a25.19,25.19,0,0,1-3.65-7.87,8.14,8.14,0,0,1,0-3.55s1.22,2.22,6.53,8.2,8.31,8.31,12.52,8.31,6-1.88,6.32-3.21-1.33-2.55-1.33-2.55.22-2.1-.33-2.88a5.27,5.27,0,0,0-1.88-1.33s1.55-5.21-2.66-5.1-8.64.78-11.86-.11-4-1.77-6.65-3.76a17.86,17.86,0,0,1-5.65-7c-1.21-2.66-.88-13.3-.88-13.3a14.46,14.46,0,0,1,4.43,5c1.44,3,1,7.09,4.21,11s4,4.66,8.53,5.21,6.09-.55,6.87-1,1.88-1.66,1.55-2.54a3.27,3.27,0,0,0-1.55-1.44,3.17,3.17,0,0,0,1.33-2.66c-.22-1.55-2.33-2.77-2.33-2.77s1.22-4.44-1-5.43a14.39,14.39,0,0,0-6.21-1.22,13.53,13.53,0,0,1-6.2-1c-2.77-1.1-5-2-7.43-4.43s-3-6-2.44-10.08a36.65,36.65,0,0,1,2.22-9,18.33,18.33,0,0,1,3.44-5.2,20.55,20.55,0,0,1,.22,7.75c-.78,3.55-2.88,8.09-1,12.3s4.1,5.87,6.54,5.76a6,6,0,0,0,3.87-1.66S50.43,111,53,109s1-6,1-6a2.52,2.52,0,0,0,2.66-2.66c0-2.77-.89-4.22-5.21-6.1s-7.53-3.55-10-6.65-3.66-6.2-3-9.19a27.1,27.1,0,0,1,3.87-9.64,50,50,0,0,1,7.54-9.31s.55,3.21-.22,4.65-4.44,5.1-5.77,7.87-2.43,7.65-1.66,10.3,1.78,3.77,3.55,4.11a7.64,7.64,0,0,0,3.43-.23s.34,4.66,4.55,4.33a4.76,4.76,0,0,0,4.43-4.44s4.21,1.88,6-1.88-.88-6.43-3.21-9a33.76,33.76,0,0,1-6-8.53c-1.11-2.66-1.22-7.86-1.55-9.19s.55-5.1,6-8.76,7.75-5,13.07-6.64A27.74,27.74,0,0,1,83.34,40.4h7.09s.22,1.55-.33,2-2.33,2.43-3,3.1a3.13,3.13,0,0,1-1.77.73s-3.55.49-7.32.6-12.3,1.88-15.73,4.65-4.43,5.32-3.66,8.76a5.88,5.88,0,0,0,3.66,4.32s-1.77,5.65,2,8,8.31-1.33,8.31-1.33a4.82,4.82,0,0,0,5,2.88c3.88-.22,6.38-3,6.6-8.09a53.21,53.21,0,0,1,1.38-11.19c.55-1.66,4.09-7.43,7-9a13.61,13.61,0,0,1,3.11-1.22,7.77,7.77,0,0,1,2.48.14,36.68,36.68,0,0,0-10.21,25C87.85,83,92.57,90.38,98.34,96.5a12,12,0,0,0,1.72-1.38,3.87,3.87,0,0,0,1.16-1.48C95.82,87.87,92,82,92,69.7a32.08,32.08,0,0,1,4.91-16.51c2.46-4.08,3.83-5.67,7-7.53s5.33-1.23,8,.17c2.88,1.55,6.43,7.32,7,9A53.21,53.21,0,0,1,120.13,66c.22,5.1,2.72,7.87,6.6,8.09a4.8,4.8,0,0,0,5-2.88s4.55,3.65,8.32,1.33,2-8,2-8a5.88,5.88,0,0,0,3.66-4.32c.78-3.44-.22-6-3.66-8.76s-12-4.54-15.74-4.65c0,0-2,0-5.31-.24s-3.77-1.09-3.77-1.09c-.66-.67-2.44-2.66-3-3.1s-.33-2-.33-2H121a27.74,27.74,0,0,1,10.86,1.67c5.32,1.66,7.64,3,13.07,6.64s6.32,7.43,6,8.76-.44,6.53-1.55,9.19a34,34,0,0,1-6,8.53c-2.33,2.55-5,5.21-3.21,9s6,1.88,6,1.88a4.75,4.75,0,0,0,4.43,4.44c4.21.33,4.54-4.33,4.54-4.33a7.69,7.69,0,0,0,3.44.23c1.77-.34,2.77-1.45,3.54-4.11s-.33-7.53-1.66-10.3-5-6.43-5.76-7.87-.22-4.65-.22-4.65A50.41,50.41,0,0,1,162,68.77a27.1,27.1,0,0,1,3.87,9.64c.67,3-.55,6.09-3,9.19s-5.65,4.77-10,6.65-5.21,3.33-5.21,6.1a2.52,2.52,0,0,0,2.66,2.66s-1.55,4,1,6,6.42-1.11,6.42-1.11a6,6,0,0,0,3.88,1.66c2.44.11,4.65-1.55,6.54-5.76s-.22-8.75-1-12.3a20.55,20.55,0,0,1,.22-7.75,18.33,18.33,0,0,1,3.44,5.2,37.12,37.12,0,0,1,2.22,9c.55,4.1,0,7.64-2.44,10.08s-4.66,3.33-7.43,4.43a13.53,13.53,0,0,1-6.2,1,14.36,14.36,0,0,0-6.21,1.22c-2.21,1-1,5.43-1,5.43s-2.11,1.22-2.33,2.77a3.17,3.17,0,0,0,1.33,2.66,3.27,3.27,0,0,0-1.55,1.44c-.33.88.77,2.1,1.55,2.54s2.33,1.56,6.87,1,5.32-1.33,8.53-5.21,2.77-8,4.21-11a14.46,14.46,0,0,1,4.43-5s.33,10.64-.88,13.3a17.89,17.89,0,0,1-5.66,7c-2.65,2-3.43,2.88-6.64,3.76s-7.65.23-11.86.11-2.66,5.1-2.66,5.1a5.27,5.27,0,0,0-1.88,1.33c-.55.78-.33,2.88-.33,2.88s-1.66,1.22-1.33,2.55,2.1,3.21,6.31,3.21,7.2-2.32,12.52-8.31S167,132,167,132a8.14,8.14,0,0,1,0,3.55,25.19,25.19,0,0,1-3.65,7.87,27.33,27.33,0,0,1-6.87,6.87c-2.55,1.77-6,.88-7.87.77s-5.76-1.44-8-1.88-3.1,3.65-3.1,3.65a7.23,7.23,0,0,0-3.66,1.89,3,3,0,0,0-.44,3.1s-2.55.66-2.55,2.33,1.44,3,3.54,3.32,4.66.55,8.65-1.77a51.49,51.49,0,0,0,8.53-6.54,5.25,5.25,0,0,1,4.32-.92s-2,4.1-4,5.74-4.72,4.51-6.46,6.05-4.2,1.23-7.18,1.23a11.15,11.15,0,0,1-5.53-1.23,9.22,9.22,0,0,0-5.64-1.34,2.87,2.87,0,0,0-2.77,2.77,16.58,16.58,0,0,0-3.69,1.64,9.75,9.75,0,0,0-2.36,2.77,7.7,7.7,0,0,0-2.56,2c-.72,1.13.51,2.56,1.64,2.67a17.42,17.42,0,0,0,5.74-.11,21.16,21.16,0,0,0,9.13-3.38c2.46-1.74,2.76-2.56,3.89-2.87a16.46,16.46,0,0,1,4.31.21,65.86,65.86,0,0,1-6.87,6.56,33.16,33.16,0,0,1-7.08,4.3s-3.38-.2-4.92-.51a36.05,36.05,0,0,0-9.53-.62c-4.51.31-6.15,2.47-6.87,5a10.26,10.26,0,0,0,.41,5.54,5.48,5.48,0,0,0-2.36,2.66c-.51,1.64.82,3.69,2.26,4.61s4.3.31,4.3.31a16.11,16.11,0,0,0,1.13,2.56c.62,1,1.44,2,3.79,1.85s6.46-1.23,9.85-7.07a22.77,22.77,0,0,0,3.07-11.49,43.28,43.28,0,0,0,8.1-5c3.59-3,6.87-6,6.87-6a31.81,31.81,0,0,1,0,4.62c-.2,1.53-2.56,2.87-4.92,4.3s-6.87,6.36-7.89,10.26,0,5.33,2.66,5.22,3-.61,3-.61a12,12,0,0,0,1,1.23c.51.51,1.44.61,2.67.1s1.53-3.18,1.53-3.18a10.31,10.31,0,0,0,4.41.11c2.05-.52,3.79-1.85,4.72-5.44s-2.46-7.48-3.18-9.84a13,13,0,0,1,.1-8.61c1.23-3.28,4.51-5.95,7.28-8.82s4.1-4,4.1-4v3.9a8.7,8.7,0,0,1-2.15,5.12c-1.54,1.75-5,5.85-5.23,11.49s1.33,7.69,4.61,8,3.49-3.58,3.49-3.58,1.43,1.43,3.79-.31a4.62,4.62,0,0,0,1.75-4.51s2.56,0,3.38-1.13a4.11,4.11,0,0,0-.51-5.13,24.82,24.82,0,0,1-5.23-9.12c-1.75-4.82-.72-9.74,1-13.94a13.07,13.07,0,0,1,4.62-5.95,28.35,28.35,0,0,1,.3,4.61c-.1,1.85-2.35,3.9-2.66,8.72a24.48,24.48,0,0,0,3,12.91c2,3.8,4.51,3.7,6.15,3.08s1.64-4.1,1.64-4.1a4.61,4.61,0,0,0,3.8-1.23,4.23,4.23,0,0,0,1.33-3.69,2.11,2.11,0,0,0,1.74-.92c.82-1,.62-3.08-1.74-5a45.6,45.6,0,0,1-8.1-8.92c-3.28-4.51-2.05-10.76-2.05-14.45s2.36-8.31,2.36-8.31.82-.31,1.43,2,.31,6.46.21,13,2.77,10,5.74,12.61,6,3.38,7.59,1.95.51-5.13.51-5.13,3.18.11,4.61-2.05-.92-4.71-.92-4.71a15.41,15.41,0,0,0,1.54-.93,2.14,2.14,0,0,0,.92-2.35c-.1-1-.72-2.67-4.61-3.39s-6.87-3.89-10.56-7.69-3.8-10.15-3.59-15,.82-10.26.82-10.26,1.95,2.16,2.56,3.08a4.25,4.25,0,0,1,.51,3.08,36.23,36.23,0,0,0-.92,8.81c.1,5.54,5.13,9.33,7.59,11.07s7.59,4.1,10.35,1.23,1.95-5.23,1.95-5.23,2.36.21,3-3a4,4,0,0,0-2.15-4.41s1.85-1.53,1.75-3.28a3.2,3.2,0,0,0-3.29-3.07c-1.74.1-4.71.31-10.66-2.56s-9.53-8.62-11.17-13.85a40.86,40.86,0,0,1-1.85-9s3.9,1.85,3.79,3.9,1.13,7.69,5.13,11.89S194,108.64,196.88,109s5-.92,5.64-3.28a4.91,4.91,0,0,0-.82-4.1A3.57,3.57,0,0,0,204,98.7ZM177.23,67.4c2.6.13,4,.68,4.78,2.18s.82,3.83-1.91,3.69-4.1-2.59-5.19-4-2.6-3-2.6-3a16.91,16.91,0,0,0,4.92,1.1Zm-10-21.6c3,.41,4.65,2.05,4.65,3.69a3.2,3.2,0,0,1-3.83,2.87c-2.19-.27-3.42-1.78-4.78-2.46a18.22,18.22,0,0,1-2.46-1.51s3.41-3,6.42-2.59Zm-25-14.9c1.23-1.51,4.51-1.78,5.88-.41s.28,2.6-1.37,3.69-3.55.82-4.92.82a9.35,9.35,0,0,1-3.14-.82,26.63,26.63,0,0,0,3.55-3.28Zm-30.35-4.68c.67-2.33,2.22-4.54,3.66-5.32s4.21-.89,4.87,1.55-2,4.77-3.87,6.1-3,2-5.21,2a14.28,14.28,0,0,1,.55-4.32ZM93,30.54c-2.21,0-3.32-.66-5.21-2s-4.54-3.66-3.87-6.1,3.43-2.32,4.87-1.55,3,3,3.66,5.32A14.68,14.68,0,0,1,93,30.54ZM62.49,35c-1.37,0-3.28.27-4.93-.82s-2.73-2.33-1.36-3.69,4.65-1.1,5.88.41a26.63,26.63,0,0,0,3.55,3.28,9.35,9.35,0,0,1-3.14.82ZM41,49.9c-1.37.68-2.59,2.19-4.78,2.46a3.2,3.2,0,0,1-3.83-2.87c0-1.64,1.64-3.28,4.65-3.69s6.42,2.59,6.42,2.59A18.22,18.22,0,0,1,41,49.9ZM29.4,69.31c-1.09,1.37-2.46,3.83-5.19,4s-2.73-2.18-1.91-3.69,2.18-2,4.78-2.18A16.91,16.91,0,0,0,32,66.3s-1.5,1.64-2.6,3Zm-6,22.83a6.87,6.87,0,0,1-4.92,4.24c-2.74.41-3.42-1.37-2.6-3.15s2.46-2.18,4.38-2.59A11.94,11.94,0,0,0,23.94,89a16.11,16.11,0,0,1-.55,3.14Zm-2.46,22c-.14,2-1.64,3.28-3.28,4.64s-3.15-.41-3.15-1.77.82-2.87,3.28-4.51,3.56-2.46,3.56-2.46-.27,2-.41,4.1ZM25.3,139c-.27,2.05-1.23,2.46-3,3.14s-1.92-.55-1.92-1.91a5.54,5.54,0,0,1,1.92-4.38,40.39,40.39,0,0,0,3.55-3.55s-.27,4.65-.55,6.7Zm62.2,47.36c1.22.75,2.53,3.08,1.57,4.51s-3.82.48-4.78-.27-2.53-5.2-2.73-6.15a37.43,37.43,0,0,1,5.94,1.91ZM73,168.83c1-.55,2.19-1,2.8-.55s.82,1.09-.41,1.57-3.34.07-4.78-.41a6.68,6.68,0,0,0,2.39-.61Zm-12.3,10.66c0,1.09,1.78,3.41,2.46,5s.85,4.22-.75,4.58-2.67-1.29-2.81-4.3a15.66,15.66,0,0,1,1.1-5.33Zm-1.78-25.63c.75-.15,2-.82,2.87-.48s1.82,1.38,1.64,2.32c-.2,1.09-1.43,1.64-3.07,1.44s-3.62-2.33-4.17-2.87c0,0,1.3-.14,2.73-.41ZM44.44,167.73a9.78,9.78,0,0,1,1.23,2.05c.55,1.23.82,4.38-1.23,4.38s-1.23-3.28-.82-4.38.82-2.05.82-2.05Zm4.72-32.4a2.41,2.41,0,0,1,2.73,1.78c0,.75-.34,2.12-1.64,2.26a3.7,3.7,0,0,1-3-1.17,28.58,28.58,0,0,1-1.85-2.87,30.09,30.09,0,0,0,3.76,0ZM35,154.2c-.14,2.18-1.5,3.28-2.46,3.14s-1.91-.82-1.91-1.5a3.74,3.74,0,0,1,1.5-3c1.23-.82,2.32-3.42,2.32-3.42A17.77,17.77,0,0,1,35,154.2Zm7.72-38.83c1.09.57,2.46,1.51,2.46,2.88a1.68,1.68,0,0,1-1.57,1.5,3,3,0,0,1-2.87-1.57,12.38,12.38,0,0,1-1.16-4.65,28.86,28.86,0,0,0,3.14,1.84ZM39.86,88.92s1.92,2,2.87,3,1.64,1.85,1.64,2.94a1.84,1.84,0,0,1-2.66,1.57,3.53,3.53,0,0,1-2-3.21c-.07-1.5.13-4.31.13-4.31ZM54,74.57a2,2,0,0,1-1.37,2.53c-1.23.44-2.25-.55-2.8-1.3s-.54-2.12.14-4.1a18.39,18.39,0,0,1,2.6-4.37s.2,2.39.41,3.62.68,2,1,3.62ZM82.24,52c-1.1,1.09-2,3.14-3.62,3.28a2.17,2.17,0,0,1-2.6-2.6c.14-1.23.61-1.91,2.87-2.87s6.42-.61,6.42-.61-2,1.7-3.07,2.8Zm43.18-2.19c2.26,1,2.73,1.64,2.87,2.87a2.17,2.17,0,0,1-2.6,2.6c-1.57-.14-2.53-2.19-3.62-3.28s-3.07-2.8-3.07-2.8,4.16-.35,6.42.61ZM154.33,71.7c.69,2,.68,3.35.14,4.1s-1.57,1.74-2.8,1.3a2,2,0,0,1-1.37-2.53c.34-1.64.82-2.39,1-3.62s.41-3.62.41-3.62a18.5,18.5,0,0,1,2.59,4.37Zm10.25,21.53a3.53,3.53,0,0,1-2,3.21,1.84,1.84,0,0,1-2.66-1.57c0-1.09.68-1.91,1.64-2.94s2.87-3,2.87-3,.2,2.81.13,4.31Zm-1,25a3,3,0,0,1-2.87,1.57,1.67,1.67,0,0,1-1.57-1.5c0-1.37,1.37-2.31,2.46-2.88a28.86,28.86,0,0,0,3.14-1.84,12.38,12.38,0,0,1-1.16,4.65Zm-6.49,20a3.73,3.73,0,0,1-3,1.17c-1.3-.14-1.64-1.51-1.64-2.26a2.41,2.41,0,0,1,2.73-1.78,30.09,30.09,0,0,0,3.76,0,30,30,0,0,1-1.84,2.87Zm-13.13,18.94c-1.64.2-2.87-.35-3.07-1.44-.18-.94.72-1.94,1.64-2.32s2.12.33,2.87.48c1.43.27,2.73.41,2.73.41-.55.54-2.67,2.68-4.17,2.87Zm-15,12.71c-1.23-.48-1-1.1-.41-1.57s1.77,0,2.8.55a6.68,6.68,0,0,0,2.39.61c-1.43.48-3.55.89-4.78.41ZM120,190.63c-1,.75-3.83,1.71-4.78.27s.35-3.76,1.57-4.51a37.43,37.43,0,0,1,5.94-1.91c-.2,1-1.77,5.39-2.73,6.15Zm24.67-5.81c-.13,3-1.29,4.65-2.8,4.3s-1.43-2.94-.75-4.58,2.46-4,2.46-5a15.5,15.5,0,0,1,1.09,5.33Zm15.18-10.66c-2.05,0-1.78-3.15-1.23-4.38a9.78,9.78,0,0,1,1.23-2.05s.41,1,.82,2.05,1.23,4.38-.82,4.38Zm12.3-21.33a3.74,3.74,0,0,1,1.5,3c0,.68-.95,1.37-1.91,1.5s-2.32-1-2.46-3.14a17.77,17.77,0,0,1,.55-4.79s1.09,2.6,2.32,3.42Zm9.84-17a5.54,5.54,0,0,1,1.92,4.38c0,1.36-.14,2.59-1.92,1.91s-2.73-1.09-3-3.14-.55-6.7-.55-6.7a40.39,40.39,0,0,0,3.55,3.55Zm4.51-23.37c2.46,1.64,3.28,3.14,3.28,4.51s-1.5,3.14-3.14,1.77-3.14-2.59-3.28-4.64-.41-4.1-.41-4.1,1.09.82,3.55,2.46Zm-.68-16.13a6.87,6.87,0,0,1-4.92-4.24,16.11,16.11,0,0,1-.55-3.14,11.94,11.94,0,0,0,3.69,1.64c1.92.41,3.56.82,4.38,2.59s.13,3.56-2.6,3.15Z" transform="translate(-0.35)"/><path class="cls-3" d="M71.31,137.23h0c.16,4.26,2.87,12.06,16.85,12.19h0a24.79,24.79,0,0,0,24.5-24.64h0c0-11.73-4.3-17.81-9.66-23.51,0,0,.55-.61,1.36-1.43a12.72,12.72,0,0,1,1.58-1.36c5.66,6,10.81,13.46,10.76,26.3h0a28.77,28.77,0,0,1-28.54,28.68h-.07c-7.81,0-13.13-2.43-16.39-5.77h0a15.18,15.18,0,0,1-4.42-10.46h0c0-6.83,5.24-10.62,9.61-10.62S83,129.18,83,131.23a4,4,0,0,1-4.37,4.35c-3.28,0-3.61-3.79-3.61-3.79s-3.75.75-3.75,5.44Z" transform="translate(-0.35)"/><path class="cls-3" d="M133.11,137.22c0-4.69-3.75-5.45-3.75-5.45s-.33,3.79-3.61,3.79a4,4,0,0,1-4.37-4.35c0-2.05,1.78-4.62,6.15-4.62s9.62,3.8,9.62,10.63h0a15.26,15.26,0,0,1-4.43,10.47h0c-3.26,3.34-8.58,5.77-16.39,5.77h-.07a28.25,28.25,0,0,1-12.71-3,9,9,0,0,0,2-1.26c1.14-.91,1.79-1.47,1.79-1.47a23.92,23.92,0,0,0,8.91,1.72h0c14-.13,16.69-7.94,16.85-12.2Z" transform="translate(-0.35)"/><path class="cls-3" d="M107.87,46.59a2.13,2.13,0,0,0-2.6-.22,5.83,5.83,0,0,0-1.77,1.3,35.89,35.89,0,0,1,4.06,5.52h0a32.08,32.08,0,0,1,4.91,16.51h0c-.08,13.83-4.85,19.5-11.31,26.05h0c-6.6,6.52-13.5,14.17-13.43,29h0a28.87,28.87,0,0,0,9.71,21.47,9.8,9.8,0,0,0,2.33-1c1.3-.77,1.4-1.12,1.4-1.12a24.93,24.93,0,0,1-9.41-19.32h0c.06-13.57,5.73-19.58,12.26-26.18h0c6.67-6.58,12.56-14,12.48-28.9h0c0-10.81-5.4-19.09-8.63-23.11Z" transform="translate(-0.35)"/></g></g></svg>